<svg xmlns="http://www.w3.org/2000/svg" xmlns:xlink="http://www.w3.org/1999/xlink" width="243" height="71" viewBox="0 0 243 71">
  <defs>
    <filter id="Rectangle_259" x="0" y="0" width="243" height="71" filterUnits="userSpaceOnUse">
      <feOffset dy="4" input="SourceAlpha"/>
      <feGaussianBlur stdDeviation="4" result="blur"/>
      <feFlood flood-opacity="0.231"/>
      <feComposite operator="in" in2="blur"/>
      <feComposite in="SourceGraphic"/>
    </filter>
    <linearGradient id="linear-gradient" y1="1" x2="1" gradientUnits="objectBoundingBox">
      <stop offset="0" stop-color="#fff" stop-opacity="0.141"/>
      <stop offset="1" stop-color="gray" stop-opacity="0"/>
    </linearGradient>
  </defs>
  <g id="Select_button_thing" data-name="Select button thing" transform="translate(12 8)">
    <g transform="matrix(1, 0, 0, 1, -12, -8)" filter="url(#Rectangle_259)">
      <g id="Rectangle_259-2" data-name="Rectangle 259" transform="translate(12 8)" fill="#7560e3" stroke="rgba(255,255,255,0.16)" stroke-width="2">
        <rect width="219" height="47" stroke="none"/>
        <rect x="1" y="1" width="217" height="45" fill="none"/>
      </g>
    </g>
    <path id="Path_105" data-name="Path 105" d="M-113,0H-6.661V43.062H-113Z" transform="translate(114.967 2.074)" opacity="0.42" fill="url(#linear-gradient)"/>
    <path id="youtube-subscription" d="M16.4,6.8H3.6V5.2H16.4V6.8M14.8,2H5.2V3.6h9.6V2M18,10v6.4A1.6,1.6,0,0,1,16.4,18H3.6A1.6,1.6,0,0,1,2,16.4V10A1.6,1.6,0,0,1,3.6,8.4H16.4A1.6,1.6,0,0,1,18,10m-4.8,3.2L8.4,10.584v5.224Z" transform="translate(15 14.561)" fill="#fff"/>
    <text id="NEW_CHANNELS_AND_TEAMS" data-name="NEW CHANNELS AND TEAMS" transform="translate(122 28)" fill="#fff" font-size="12" font-family="Poppins-Medium, Poppins" font-weight="500"><tspan x="-81.666" y="0">NEW CHANNELS AND TEAMS</tspan></text>
  </g>
</svg>
