<svg xmlns="http://www.w3.org/2000/svg" xmlns:xlink="http://www.w3.org/1999/xlink" width="833" height="285.638" viewBox="0 0 833 285.638">
  <defs>
    <linearGradient id="linear-gradient" x1="0.5" x2="0.5" y2="1" gradientUnits="objectBoundingBox">
      <stop offset="0" stop-color="#fff"/>
      <stop offset="1" stop-color="#a8a8a8"/>
    </linearGradient>
    <filter id="Blanklogo" x="0" y="0" width="833" height="285.638" filterUnits="userSpaceOnUse">
      <feOffset dx="5" dy="3" input="SourceAlpha"/>
      <feGaussianBlur stdDeviation="5.5" result="blur"/>
      <feFlood flood-opacity="0.161"/>
      <feComposite operator="in" in2="blur"/>
      <feComposite in="SourceGraphic"/>
    </filter>
  </defs>
  <g transform="matrix(1, 0, 0, 1, 0, 0)" filter="url(#Blanklogo)">
    <path id="Blanklogo-2" data-name="Blanklogo" d="M38.134,319.119l50.3-251.773s21.694-.812,48.208-.518c48,.532,48.25.554,57.583,4.93,19.844,9.306,23.63,25.4,14.855,63.137-1.774,7.631-4.382,16.11-5.794,18.841-4.519,8.738-13.146,17.172-21.548,21.065l-8.168,3.785,4.8,2.5a30.748,30.748,0,0,1,14.077,15.393c2.733,7.042,2.335,27.842-.818,42.759-10.149,48.017-28.247,72.021-59.263,78.6C124.418,319.524,38.134,319.119,38.134,319.119Zm82.945-47.054c7.649-3.2,9.846-8.086,15.108-33.63,6.387-31,4.786-36.271-11.154-36.7l-8.724-.232-7.124,35.213c-3.918,19.367-7.171,35.779-7.228,36.471C101.779,275.35,115.094,274.566,121.079,272.065Zm21.286-111.783c4.823-2.581,8.948-13.23,12.41-32.035,3.664-19.908,2.908-21.479-10.336-21.479-7.937,0-9.089.44-9.874,3.773-2.674,11.351-9.236,45.765-9.236,48.439,0,2.534,1.286,3.123,6.817,3.123,3.75,0,8.348-.819,10.219-1.82Zm102.5-92.466H299.5l-41.99,202.021h60.557l-16.57,48.182H195.363Zm158-1.292h88.216L467.407,318.018H413.468l4.173-36.863H389.222l-11.007,36.863H323.527S375.673,153.8,402.858,66.524Zm19.431,168.939,15.624-120.8-2.771.377-31.8,119.585Zm67.2,83.029s10.889-60.937,49.222-251.968h57.819s1.083,69.755,2.707,116.538L622.684,66.524H676.7L626.109,318.491H572.087s-3.1-99.168-4.7-118.661C549.689,288.2,543.7,318.491,543.7,318.491h-54.2Zm161.483,0s49.9-251.968,49.9-251.968l55.1,1.344-17.856,93.7s10.4-20.755,44.268-94.211c32.986-.713,55.752-.209,55.752-.209S826.04,93.669,784.38,182.558c7.872,102.872,10.613,135.933,10.613,135.933H736.435l-6.787-110.073L706.273,318.491h-55.3Z" transform="translate(-26.63 -53.02)" fill="url(#linear-gradient)"/>
  </g>
</svg>
